<?xml version="1.0" encoding="UTF-8" standalone="no"?>
<svg
   xmlns:dc="http://purl.org/dc/elements/1.1/"
   xmlns:cc="http://creativecommons.org/ns#"
   xmlns:rdf="http://www.w3.org/1999/02/22-rdf-syntax-ns#"
   xmlns:svg="http://www.w3.org/2000/svg"
   xmlns="http://www.w3.org/2000/svg"
   xmlns:sodipodi="http://sodipodi.sourceforge.net/DTD/sodipodi-0.dtd"
   xmlns:inkscape="http://www.inkscape.org/namespaces/inkscape"
   version="1.1"
   id="Ebene_1"
   x="0px"
   y="0px"
   viewBox="0 0 566.3 328.41507"
   xml:space="preserve"
   sodipodi:docname="NHR.svg"
   width="566.29999"
   height="328.41507"
   inkscape:version="1.0.2 (e86c870879, 2021-01-15)"
   inkscape:export-filename="/home/kunkel/ur-git/hpcf/talks/2021-12-nhr-ws/NHR.png"
   inkscape:export-xdpi="100"
   inkscape:export-ydpi="100"><metadata
   id="metadata119"><rdf:RDF><cc:Work
       rdf:about=""><dc:format>image/svg+xml</dc:format><dc:type
         rdf:resource="http://purl.org/dc/dcmitype/StillImage" /><dc:title>NHR_Lucida</dc:title></cc:Work></rdf:RDF></metadata><defs
   id="defs117" /><sodipodi:namedview
   pagecolor="#ffffff"
   bordercolor="#666666"
   borderopacity="1"
   objecttolerance="10"
   gridtolerance="10"
   guidetolerance="10"
   inkscape:pageopacity="0"
   inkscape:pageshadow="2"
   inkscape:window-width="1920"
   inkscape:window-height="1016"
   id="namedview115"
   showgrid="false"
   fit-margin-top="0"
   fit-margin-left="0"
   fit-margin-right="0"
   fit-margin-bottom="0"
   inkscape:zoom="0.42489354"
   inkscape:cx="-2.1420089"
   inkscape:cy="2.7018544"
   inkscape:window-x="0"
   inkscape:window-y="27"
   inkscape:window-maximized="1"
   inkscape:current-layer="Ebene_1" />
<style
   type="text/css"
   id="style2">
	.st0{fill:#2A358C;}
</style>
<title
   id="title4">NHR_Lucida</title>
<g
   id="g102">
	
	
	
	
	
	
	
	
	
	
	
	
	
	
	
	
	
	
	<path
   class="st0"
   d="m 2,260.71943 v -37.84124 h 5.2395555 l 19.0453685,29.27498 v -29.27498 h 4.574215 v 37.84124 H 25.619583 L 6.4910475,231.44445 v 29.27498 z"
   id="path42"
   style="stroke-width:0.999998" />
	<path
   class="st0"
   d="m 55.144063,257.22639 c -2.994032,2.74453 -5.904896,4.15838 -8.732593,4.15838 -2.162356,0.0832 -4.158377,-0.66534 -5.738561,-2.16236 -1.497015,-1.41385 -2.328691,-3.40987 -2.245523,-5.48906 -0.08317,-2.82769 1.33068,-5.57222 3.825707,-6.98607 2.578194,-1.66335 6.237566,-2.41186 10.978116,-2.41186 h 1.164346 v -3.3267 c 0,-3.24354 -1.663351,-4.82372 -5.073221,-4.82372 -2.994031,0.0832 -5.904896,0.91484 -8.566257,2.49503 v -4.15838 c 2.994032,-1.33068 6.320733,-1.99602 9.564268,-2.07919 3.077199,0 5.322723,0.66534 6.819739,2.07919 1.497016,1.41385 2.162356,3.57621 2.245523,6.48707 v 12.5583 c 0,2.91086 0.914843,4.32471 2.661362,4.32471 0.33267,0 0.66534,-0.0832 0.99801,-0.0832 l 0.332671,2.8277 c -1.164346,0.58217 -2.495027,0.83168 -3.825707,0.83168 -2.245524,-0.0832 -3.74254,-1.49702 -4.40788,-4.24155 z m -0.748508,-2.74453 v -7.15241 l -1.580184,-0.0832 c -2.328691,-0.0832 -4.657382,0.41583 -6.736571,1.58018 -1.580183,0.83167 -2.578194,2.41186 -2.578194,4.15838 0,1.16434 0.415838,2.24552 1.247513,3.0772 0.831676,0.83167 1.912854,1.24751 3.077199,1.24751 2.162357,0 4.324713,-0.99801 6.570237,-2.8277 z"
   id="path44"
   style="stroke-width:0.999998" />
	<path
   class="st0"
   d="m 82.173515,260.71943 c -1.33068,0.41584 -2.661361,0.58217 -4.075209,0.66534 -2.245524,0.16633 -4.40788,-0.66534 -5.988064,-2.16236 -1.497016,-1.66335 -2.245524,-3.90887 -2.162356,-6.1544 v -16.30084 h -3.493037 v -3.8257 h 3.493037 v -4.99006 l 5.07322,-0.499 v 5.48906 h 7.235577 v 3.8257 h -7.235577 v 15.386 c 0,3.65937 1.580184,5.40589 4.74055,5.40589 0.831676,0 1.663351,-0.16633 2.411859,-0.33267 z"
   id="path46"
   style="stroke-width:0.999998" />
	<path
   class="st0"
   d="m 89.409092,227.95141 v -5.07322 h 4.990053 v 5.07322 z m 0,32.76802 v -27.77796 h 4.990053 v 27.77796 z"
   id="path48"
   style="stroke-width:0.999998" />
	<path
   class="st0"
   d="m 115.60687,261.38477 c -4.07521,0 -7.31874,-1.33068 -9.64744,-3.90888 -2.32869,-2.57819 -3.5762,-6.15439 -3.5762,-10.64544 0,-4.49105 1.16434,-7.98409 3.5762,-10.64545 2.41186,-2.66136 5.6554,-3.90887 9.64744,-3.90887 4.07521,0 7.31874,1.33068 9.64743,3.90887 2.41186,2.5782 3.57621,6.1544 3.57621,10.64545 0,4.49105 -1.16435,7.98408 -3.57621,10.64544 -2.41185,2.5782 -5.57222,3.90888 -9.64743,3.90888 z m 0,-3.74254 c 2.32869,0.0832 4.49105,-0.99801 5.82173,-2.8277 1.41385,-1.82968 2.07919,-4.49105 2.07919,-7.90091 0,-3.40987 -0.66534,-6.07124 -2.07919,-7.90092 -2.5782,-3.24354 -7.23558,-3.74254 -10.39595,-1.24752 -0.41583,0.33268 -0.83167,0.74851 -1.24751,1.24752 -1.33068,1.82968 -2.07919,4.49105 -2.07919,7.90092 0,3.40986 0.66534,6.07123 2.07919,7.90091 1.33068,1.82969 3.49304,2.91087 5.82173,2.8277 z"
   id="path50"
   style="stroke-width:0.999998" />
	<path
   class="st0"
   d="m 136.73143,260.71943 v -27.77796 h 5.07322 v 5.23955 c 2.66136,-3.90887 5.90489,-5.82173 9.81377,-5.82173 2.16235,-0.0832 4.24154,0.74851 5.73856,2.3287 1.49701,1.66335 2.24552,3.90887 2.16235,6.15439 v 19.96022 h -5.07322 v -18.29686 c 0,-2.07919 -0.33267,-3.57621 -0.91484,-4.40788 -0.66534,-0.91485 -1.82969,-1.41385 -2.99403,-1.33069 -3.0772,0 -5.98806,1.99603 -8.73259,6.07124 v 17.96419 z"
   id="path52"
   style="stroke-width:0.999998" />
	<path
   class="st0"
   d="m 183.55476,257.22639 c -2.99404,2.74453 -5.9049,4.15838 -8.7326,4.15838 -2.16235,0.0832 -4.15837,-0.74851 -5.73856,-2.16236 -1.49701,-1.41385 -2.32869,-3.40987 -2.24552,-5.48906 -0.0832,-2.82769 1.33068,-5.57222 3.82571,-6.98607 2.57819,-1.66335 6.23756,-2.41186 10.97811,-2.41186 h 1.16435 v -3.3267 c 0,-3.24354 -1.66335,-4.82372 -5.07322,-4.82372 -2.99403,0.0832 -5.9049,0.91484 -8.48309,2.41186 v -4.15838 c 2.99403,-1.33068 6.32073,-1.99602 9.56426,-2.07919 3.0772,0 5.32273,0.66534 6.81974,2.07919 1.49702,1.41385 2.24553,3.57621 2.24553,6.48707 v 12.5583 c 0,2.91087 0.91484,4.32471 2.66136,4.32471 0.33267,0 0.66534,-0.0832 0.99801,-0.0832 l 0.33267,2.82769 c -1.16435,0.58218 -2.49503,0.83168 -3.74254,0.83168 -2.41186,0 -3.90887,-1.41385 -4.57421,-4.15838 z m -0.74851,-2.74453 v -7.15241 l -1.58019,-0.0832 c -2.32869,-0.0832 -4.65738,0.41583 -6.73657,1.58018 -1.58018,0.83167 -2.57819,2.41186 -2.57819,4.15838 0,1.16434 0.41584,2.24552 1.24751,3.0772 0.83168,0.83167 1.91286,1.24751 3.16037,1.24751 2.07919,0 4.24154,-0.99801 6.48707,-2.8277 z"
   id="path54"
   style="stroke-width:0.999998" />
	<path
   class="st0"
   d="M 198.19224,260.71943 V 220.3 h 5.07322 v 40.41943 z"
   id="path56"
   style="stroke-width:0.999998" />
	<path
   class="st0"
   d="m 233.70479,259.88775 c -2.8277,0.91485 -5.73856,1.41385 -8.7326,1.58019 -3.74254,0.16633 -7.40191,-1.33068 -9.9801,-4.07521 -2.5782,-2.74453 -3.90888,-6.23757 -3.90888,-10.56228 0,-4.24155 1.16435,-7.65142 3.40987,-10.39595 2.16236,-2.66136 5.32273,-4.07521 8.7326,-4.07521 2.99403,-0.16633 5.90489,1.16435 7.81774,3.57621 1.82969,2.41186 2.74453,5.82173 2.74453,10.22961 v 1.49701 H 216.2396 c 0.74851,6.57024 3.99204,9.89694 9.7306,9.89694 2.66137,-0.0832 5.23956,-0.66534 7.73459,-1.74652 z M 216.4891,243.91958 h 12.22563 c 0,-5.15638 -1.91285,-7.73458 -5.82173,-7.73458 -3.8257,-0.0832 -5.98806,2.49503 -6.4039,7.73458 z"
   id="path58"
   style="stroke-width:0.999998" />
	<path
   class="st0"
   d="m 241.43937,259.80458 v -4.65738 c 3.24353,1.66335 6.1544,2.41186 8.56626,2.49503 1.33068,0.0832 2.57819,-0.33267 3.5762,-1.16435 0.91484,-0.66534 1.41385,-1.74652 1.41385,-2.91086 0,-1.74652 -1.33068,-3.16037 -3.99204,-4.24155 l -2.91087,-1.24751 c -4.32471,-1.82969 -6.48707,-4.40788 -6.48707,-7.81775 -0.0832,-2.24552 0.83168,-4.32471 2.5782,-5.73856 1.74652,-1.41385 4.07521,-2.07919 7.06924,-2.07919 1.91285,0 3.82571,0.2495 5.73856,0.66534 l 1.08118,0.16634 v 4.24154 c -2.16236,-0.74851 -4.40788,-1.16434 -6.73657,-1.24751 -1.24752,-0.0832 -2.49503,0.2495 -3.49304,0.99801 -0.83168,0.58217 -1.33068,1.58018 -1.33068,2.57819 0,1.49702 1.24751,2.8277 3.65937,3.82571 l 2.41186,0.99801 c 2.16236,0.83168 4.15838,2.07919 5.82173,3.65937 1.16434,1.33068 1.74652,3.0772 1.74652,4.82372 0,2.32869 -0.99801,4.57422 -2.91087,5.98806 -2.07919,1.66336 -4.74055,2.49503 -7.40191,2.3287 -2.8277,-0.16634 -5.65539,-0.74851 -8.39992,-1.66336 z"
   id="path60"
   style="stroke-width:0.999998" />
	<path
   class="st0"
   d="m 2.250488,317.67858 v -37.84124 h 5.4058907 v 15.96817 H 25.620569 v -15.96817 h 5.40589 v 37.84124 h -5.40589 V 299.79755 H 7.5732112 v 17.88103 z"
   id="path62"
   style="stroke-width:0.999998" />
	<path
   class="st0"
   d="m 51.984681,318.34392 c -4.07521,0 -7.318744,-1.33068 -9.647435,-3.90888 -2.411859,-2.57819 -3.576205,-6.1544 -3.576205,-10.64544 0,-4.49105 1.164346,-7.98409 3.576205,-10.64545 2.411859,-2.66136 5.572225,-3.90887 9.647435,-3.90887 4.07521,0 7.318744,1.33068 9.647436,3.90887 2.328691,2.57819 3.576204,6.1544 3.576204,10.64545 0,4.49104 -1.164345,7.98408 -3.576204,10.64544 -2.411859,2.66136 -5.572226,3.90888 -9.647436,3.90888 z m 0,-3.74254 c 2.328692,0.0832 4.491048,-0.99801 5.821729,-2.8277 1.413848,-1.82968 2.079188,-4.49105 2.079188,-7.90092 0,-3.40987 -0.66534,-6.07123 -2.079188,-7.90091 -2.578194,-3.24354 -7.235577,-3.74254 -10.479111,-1.16435 -0.415838,0.33267 -0.831676,0.74851 -1.164346,1.16435 -1.413848,1.82968 -2.079189,4.49104 -2.079189,7.90091 0,3.40987 0.665341,6.07124 2.079189,7.90092 1.330681,1.82969 3.493037,2.91087 5.821728,2.8277 z"
   id="path64"
   style="stroke-width:0.999998" />
	<path
   class="st0"
   d="m 92.404105,316.8469 c -2.744529,0.91484 -5.572226,1.41385 -8.48309,1.49702 -3.576204,0.0832 -6.98607,-1.41385 -9.314761,-4.15838 -2.495026,-2.91086 -3.825707,-6.6534 -3.74254,-10.56228 0,-4.49105 1.247514,-8.06725 3.659373,-10.56228 2.411858,-2.49502 5.904891,-3.74254 10.229604,-3.74254 2.411859,0 4.906885,0.33267 7.235576,0.91485 v 4.24154 c -2.245524,-0.74851 -4.574215,-1.16434 -6.986074,-1.24751 -2.411859,-0.0832 -4.74055,0.99801 -6.237566,2.91086 -1.580179,1.91286 -2.328687,4.49105 -2.328687,7.73458 -0.166335,2.74453 0.748508,5.40589 2.411855,7.56825 1.497016,1.91285 3.825707,2.99403 6.320733,2.91087 2.495027,-0.0832 4.906886,-0.66535 7.069242,-1.74652 v 4.24154 z"
   id="path66"
   style="stroke-width:0.999998" />
	<path
   class="st0"
   d="m 99.972352,317.67858 v -40.41943 h 5.073218 v 17.88102 c 2.66136,-3.90887 5.9049,-5.82173 9.81377,-5.82173 2.16236,-0.0832 4.24155,0.74851 5.73856,2.32869 1.49702,1.66336 2.24553,3.90888 2.16236,6.1544 v 19.96021 h -5.07322 v -18.29686 c 0,-2.07918 -0.33267,-3.5762 -0.91484,-4.40788 -0.66534,-0.91484 -1.82969,-1.41384 -2.99404,-1.33068 -3.07719,0 -5.98806,1.99602 -8.73259,6.07123 v 17.96419 z"
   id="path68"
   style="stroke-width:0.999998" />
	<path
   class="st0"
   d="m 132.49086,317.67858 v -40.41943 h 5.07322 v 40.41943 z"
   id="path70"
   style="stroke-width:0.999998" />
	<path
   class="st0"
   d="m 168.00341,316.8469 c -2.8277,0.91484 -5.73857,1.41385 -8.64943,1.49702 -3.74254,0.16633 -7.40191,-1.33068 -10.06327,-4.07521 -2.5782,-2.74453 -3.90888,-6.23757 -3.90888,-10.56228 0,-4.24155 1.16435,-7.65142 3.40987,-10.39594 2.16236,-2.66137 5.32272,-4.07521 8.73259,-3.99205 2.99404,-0.16633 5.9049,1.16435 7.81775,3.57621 1.82969,2.41186 2.74453,5.82173 2.74453,10.22961 v 1.49701 h -17.54835 c 0.74851,6.57024 3.99204,9.89694 9.7306,9.89694 2.66136,-0.0832 5.23956,-0.66534 7.73459,-1.74652 z m -17.21569,-15.96817 h 12.22563 c 0,-5.15639 -1.91285,-7.73458 -5.82173,-7.73458 -3.8257,-0.0832 -5.98806,2.49503 -6.4039,7.73458 z"
   id="path72"
   style="stroke-width:0.999998" />
	<path
   class="st0"
   d="m 176.81917,284.91056 v -5.07322 h 5.07322 v 5.07322 z m 0,32.76802 v -27.77796 h 5.07322 v 27.77796 z"
   id="path74"
   style="stroke-width:0.999998" />
	<path
   class="st0"
   d="m 190.95765,316.76373 v -4.65738 c 3.3267,1.66335 6.1544,2.41186 8.56626,2.49503 1.33068,0.0832 2.57819,-0.33267 3.5762,-1.16435 0.91484,-0.66534 1.41385,-1.74652 1.41385,-2.91086 0,-1.74652 -1.33068,-3.16037 -3.99204,-4.24155 l -2.91087,-1.24751 c -4.32471,-1.82969 -6.48707,-4.40788 -6.57023,-7.81775 -0.0832,-2.24552 0.83167,-4.32471 2.57819,-5.73856 1.74652,-1.41385 4.07521,-2.07919 7.06924,-2.07919 1.91285,0 3.82571,0.2495 5.73856,0.66534 l 1.08118,0.16634 v 4.24154 c -2.16236,-0.74851 -4.40788,-1.16434 -6.73657,-1.24751 -1.24751,-0.0832 -2.49503,0.2495 -3.49304,0.99801 -0.83167,0.58217 -1.33068,1.58018 -1.33068,2.57819 0,1.49702 1.24751,2.8277 3.65937,3.82571 l 2.41186,0.99801 c 2.16236,0.83168 4.15838,2.07919 5.82173,3.65937 1.16435,1.33068 1.74652,3.0772 1.74652,4.82372 0,2.32869 -0.99801,4.57422 -2.91087,5.98806 -2.07918,1.66335 -4.74055,2.49503 -7.40191,2.3287 -2.82769,-0.16634 -5.65539,-0.74851 -8.31675,-1.66336 z"
   id="path76"
   style="stroke-width:0.999998" />
	<path
   class="st0"
   d="m 231.04441,317.67858 c -1.33068,0.41583 -2.66137,0.58217 -4.07521,0.66534 -2.24553,0.16633 -4.40788,-0.66534 -5.98807,-2.16236 -1.49701,-1.66335 -2.24552,-3.90887 -2.16235,-6.1544 v -16.30084 h -3.49304 v -3.8257 h 3.49304 v -4.99006 l 5.07322,-0.499 v 5.48906 h 7.23557 v 3.8257 H 223.892 v 15.386 c 0,3.65937 1.58018,5.40589 4.74055,5.40589 0.83167,0 1.66335,-0.16633 2.41186,-0.33267 z"
   id="path78"
   style="stroke-width:0.999998" />
	<path
   class="st0"
   d="m 255.662,317.67858 v -5.23956 c -2.66136,3.90888 -5.9049,5.82173 -9.7306,5.82173 -2.16236,0.0832 -4.32472,-0.74851 -5.82173,-2.32869 -1.49702,-1.66335 -2.24553,-3.90888 -2.16236,-6.1544 v -19.96021 h 5.07322 v 18.29686 c 0,2.07919 0.33267,3.5762 0.91485,4.40788 0.7485,0.91484 1.82968,1.41385 3.07719,1.33068 3.0772,0 5.98807,-1.99602 8.64943,-6.07123 v -17.96419 h 5.07322 v 27.77796 z"
   id="path80"
   style="stroke-width:0.999998" />
	<path
   class="st0"
   d="m 270.79849,317.67858 v -27.77796 h 5.07322 v 5.23955 c 2.66137,-3.90887 5.9049,-5.82173 9.81377,-5.82173 2.16236,-0.0832 4.24155,0.74851 5.73856,2.32869 1.49702,1.66336 2.24553,3.90888 2.16236,6.1544 v 19.96021 h -5.07322 v -18.29686 c 0,-2.07918 -0.33267,-3.5762 -0.91484,-4.40788 -0.74851,-0.91484 -1.82969,-1.41384 -2.99403,-1.33068 -3.0772,0 -5.98807,1.99602 -8.7326,6.07123 v 17.96419 z"
   id="path82"
   style="stroke-width:0.999998" />
	<path
   class="st0"
   d="m 303.40017,326.91017 0.58217,-4.32471 c 2.66137,1.33068 5.6554,1.99602 8.64943,2.07919 5.65539,0 8.48309,-2.99403 8.48309,-9.06526 v -4.40788 c -0.83168,1.74652 -2.07919,3.24353 -3.74254,4.32471 -1.58018,0.99801 -3.49304,1.58018 -5.40589,1.49702 -3.0772,0.16633 -6.07123,-1.24752 -7.98409,-3.57621 -1.99602,-2.41186 -2.91086,-5.65539 -2.91086,-9.81377 0,-4.24154 1.08118,-7.65141 3.3267,-10.31277 2.07919,-2.5782 5.32273,-4.07521 8.64943,-3.99205 3.0772,0 6.07123,1.41385 7.98408,3.74254 v -3.16036 h 5.07322 v 20.20971 c 0.0832,3.24353 -0.16633,6.48707 -0.66534,9.64744 -0.33267,1.91285 -1.24751,3.65937 -2.57819,5.15638 -2.24553,2.32869 -5.6554,3.49304 -10.31278,3.49304 -3.0772,0.0832 -6.1544,-0.499 -9.14843,-1.49702 z m 17.71469,-18.87903 v -11.47712 c -2.24552,-2.32869 -4.65738,-3.40987 -7.23558,-3.40987 -2.16235,-0.0832 -4.24154,0.99801 -5.48906,2.74453 -1.33068,1.82969 -1.99602,4.40788 -1.99602,7.73458 0,6.07123 2.16236,9.06526 6.4039,9.06526 2.99404,0 5.73857,-1.58018 8.31676,-4.65738 z"
   id="path84"
   style="stroke-width:0.999998" />
	<path
   class="st0"
   d="m 334.92067,316.76373 v -4.65738 c 3.3267,1.66335 6.1544,2.41186 8.56626,2.49503 1.33068,0.0832 2.57819,-0.33267 3.5762,-1.16435 0.91485,-0.66534 1.41385,-1.74652 1.41385,-2.91086 0,-1.74652 -1.33068,-3.16037 -3.99204,-4.24155 l -2.91086,-1.24751 c -4.32472,-1.82969 -6.48707,-4.40788 -6.48707,-7.81775 -0.0832,-2.24552 0.83167,-4.32471 2.57819,-5.73856 1.74652,-1.41385 4.07521,-2.07919 7.06924,-2.07919 1.91286,0 3.82571,0.2495 5.73856,0.66534 l 1.08118,0.16634 v 4.15837 c -2.16235,-0.7485 -4.40788,-1.16434 -6.73657,-1.24751 -1.24751,-0.0832 -2.49503,0.2495 -3.49304,0.99801 -0.83167,0.58217 -1.33068,1.58018 -1.33068,2.5782 0,1.49701 1.24752,2.82769 3.65937,3.8257 l 2.41186,0.99801 c 2.16236,0.83168 4.15838,2.07919 5.82173,3.65938 1.16435,1.33068 1.74652,3.07719 1.74652,4.82371 0,2.32869 -0.99801,4.57422 -2.91086,5.98807 -2.07919,1.66335 -4.74055,2.49502 -7.40192,2.32869 -2.82769,-0.0832 -5.65539,-0.66534 -8.39992,-1.58019 z"
   id="path86"
   style="stroke-width:0.999998" />
	<path
   class="st0"
   d="m 362.69863,317.67858 v -27.77796 h 5.07322 v 5.23955 c 1.99602,-3.90887 4.90689,-5.82173 8.7326,-5.82173 0.499,0 1.08117,0.0832 1.58018,0.16634 v 4.74055 c -0.74851,-0.2495 -1.49702,-0.41584 -2.32869,-0.41584 -3.16037,0 -5.82173,1.91285 -7.98409,5.65539 v 18.29686 z"
   id="path88"
   style="stroke-width:0.999998" />
	<path
   class="st0"
   d="m 404.44874,316.8469 c -2.8277,0.91484 -5.73856,1.41385 -8.64942,1.49702 -3.74254,0.16633 -7.40192,-1.33068 -10.06328,-4.07521 -2.57819,-2.74453 -3.90887,-6.23757 -3.90887,-10.56228 0,-4.24155 1.16434,-7.65142 3.40987,-10.39594 2.16235,-2.66137 5.32272,-4.07521 8.73259,-4.07521 2.99403,-0.16634 5.9049,1.16434 7.81775,3.5762 1.82969,2.41186 2.74453,5.82173 2.74453,10.22961 v 1.49701 h -17.54835 c 0.7485,6.57024 3.99204,9.89694 9.7306,9.89694 2.66136,-0.0832 5.23955,-0.66534 7.73458,-1.74652 z m -17.13251,-15.96817 h 12.22563 c 0,-5.15639 -1.91286,-7.73458 -5.73856,-7.73458 -3.90888,-0.0832 -6.07124,2.49503 -6.48707,7.73458 z"
   id="path90"
   style="stroke-width:0.999998" />
	<path
   class="st0"
   d="m 432.55937,316.8469 c -2.74453,0.91484 -5.57222,1.41385 -8.48309,1.49702 -3.5762,0.0832 -6.98607,-1.41385 -9.31476,-4.15838 -2.49503,-2.91086 -3.82571,-6.6534 -3.74254,-10.56228 0,-4.49105 1.24751,-8.06725 3.65937,-10.56228 2.41186,-2.49502 5.9049,-3.74254 10.22961,-3.74254 2.41186,0 4.90688,0.33267 7.31874,0.83168 v 4.24154 c -2.24552,-0.7485 -4.57421,-1.16434 -6.9029,-1.24751 -2.41186,-0.0832 -4.74055,0.99801 -6.23757,2.91086 -1.58018,1.91286 -2.32869,4.49105 -2.32869,7.73459 -0.16634,2.74453 0.74851,5.40589 2.41186,7.56824 1.49701,1.91286 3.8257,2.99404 6.32073,2.91087 2.49503,-0.0832 4.90689,-0.66534 7.06924,-1.74652 z"
   id="path92"
   style="stroke-width:0.999998" />
	<path
   class="st0"
   d="m 440.12762,317.67858 v -40.41943 h 5.07322 v 17.88102 c 2.66136,-3.90887 5.9049,-5.82173 9.81377,-5.82173 2.16236,-0.0832 4.24154,0.74851 5.73856,2.32869 1.49702,1.66336 2.24552,3.90888 2.16236,6.1544 v 19.96021 h -5.07322 v -18.29686 c 0,-2.07918 -0.33267,-3.5762 -0.91485,-4.40788 -0.66534,-0.91484 -1.82968,-1.41384 -2.99403,-1.33068 -3.0772,0 -5.98806,1.99602 -8.73259,6.07123 v 17.96419 z"
   id="path94"
   style="stroke-width:0.999998" />
	<path
   class="st0"
   d="m 472.64613,317.67858 v -27.77796 h 5.07322 v 5.23955 c 2.66136,-3.90887 5.9049,-5.82173 9.81377,-5.82173 2.16236,-0.0832 4.24155,0.74851 5.73856,2.32869 1.49702,1.66336 2.24553,3.90888 2.16236,6.1544 v 19.96021 h -5.07322 v -18.29686 c 0,-2.07918 -0.33267,-3.5762 -0.91485,-4.40788 -0.66534,-0.91484 -1.82968,-1.41384 -2.99403,-1.33068 -3.0772,0 -5.98806,1.99602 -8.73259,6.07123 v 17.96419 z"
   id="path96"
   style="stroke-width:0.999998" />
	<path
   class="st0"
   d="m 525.54069,316.8469 c -2.8277,0.91484 -5.73856,1.41385 -8.64943,1.49702 -3.74253,0.16633 -7.40191,-1.33068 -10.06327,-4.07521 -2.57819,-2.74453 -3.82571,-6.23757 -3.82571,-10.56228 0,-4.24155 1.16435,-7.65142 3.40987,-10.39594 2.16236,-2.66137 5.32273,-4.07521 8.7326,-3.99205 2.99403,-0.16633 5.90489,1.16435 7.81775,3.57621 1.82968,2.41186 2.74452,5.82173 2.74452,10.22961 v 1.49701 h -17.54835 c 0.74851,6.57024 3.99204,9.89694 9.73061,9.89694 2.66136,-0.0832 5.23955,-0.66534 7.73458,-1.74652 z m -17.21568,-15.96817 h 12.22563 c 0,-5.15639 -1.91286,-7.73458 -5.82173,-7.73458 -3.82571,-0.0832 -5.98806,2.49503 -6.4039,7.73458 z"
   id="path98"
   style="stroke-width:0.999998" />
	<path
   class="st0"
   d="m 534.35645,317.67858 v -27.77796 h 5.07322 v 5.23955 c 2.66136,-3.90887 5.9049,-5.82173 9.81377,-5.82173 2.16236,-0.0832 4.24155,0.74851 5.73856,2.32869 1.49702,1.66336 2.24553,3.90888 2.16236,6.1544 v 19.96021 h -4.99006 v -18.29686 c 0,-2.07918 -0.33267,-3.5762 -0.91484,-4.40788 -0.74851,-0.91484 -1.82968,-1.41384 -2.99403,-1.33068 -3.0772,0 -5.98806,1.99602 -8.73259,6.07123 v 17.96419 z"
   id="path100"
   style="stroke-width:0.999998" />
</g>
<g
   id="g110">
	<path
   class="st0"
   d="M 0,202.3 V 0 H 28.5 L 131.4,156.3 V 0 h 24.9 V 202.3 H 128 L 25,46.1 v 156.2 z"
   id="path104" />
	<path
   class="st0"
   d="M 208.9,202.3 V 0 h 29 v 85.3 h 97.2 V 0 h 29 v 202.3 h -29 v -95.6 h -97.2 v 95.6 z"
   id="path106" />
	<path
   class="st0"
   d="M 416.8,202.3 V 0 h 61.8 c 19.6,0 34.6,4.3 45.1,12.8 10.5,8.5 15.7,21 15.7,37.3 0.2,12.3 -3.6,24.3 -10.8,34.3 -7.2,10 -17.4,17.7 -30.5,23.1 l 68.2,94.7 h -35.7 l -58.2,-85.6 h -27 v 85.6 z m 28.7,-107 h 9.4 c 17.9,0 31.5,-3.6 40.8,-10.8 9.3,-7.2 14,-17.7 14,-31.6 0,-21 -15.3,-31.4 -46,-31.5 h -18.2 z"
   id="path108" />
</g>

</svg>
